<?xml version="1.0" encoding="utf-8"?>
<!-- Generator: Adobe Illustrator 21.0.0, SVG Export Plug-In . SVG Version: 6.00 Build 0)  -->
<svg version="1.1" id="Camada_1" xmlns="http://www.w3.org/2000/svg" xmlns:xlink="http://www.w3.org/1999/xlink" x="0px" y="0px"
	 viewBox="0 0 88 88" style="enable-background:new 0 0 88 88;" xml:space="preserve">
<style type="text/css">
	.st0{fill:#111111;}
</style>
<g>
	<path class="st0" d="M15,64.6L3.1,4.1C9.2,3,15.6,2.7,21.8,3.3L15,64.6z"/>
	<path class="st0" d="M17.5,65.7l7-62.1c7.4,1,14.6,3.1,21.4,6.5L17.5,65.7z"/>
	<path class="st0" d="M63.8,22.7L20.2,66.3l28-55C53.8,14.3,59,18.1,63.8,22.7z"/>
	<path class="st0" d="M77.4,41.1L21.7,68.3l43.8-43.8C70.4,29.5,74.3,35.1,77.4,41.1z"/>
	<path class="st0" d="M84.2,62.8l-61.2,7.7l55.5-27.1C81.4,49.6,83.3,56.1,84.2,62.8z"/>
	<path class="st0" d="M83.8,85L22.9,73.2l61.6-7.8C85.3,71.9,85,78.5,83.8,85z"/>
	<circle class="st0" cx="16.9" cy="70.2" r="3.8"/>
</g>
</svg>
